Coordinates
version=1
nRows=11
nColumns=36
inDegrees=yes

Units are S.I. units (second, meters, Newtons, ...)
If the header above contains a line with 'inDegrees', this indicates whether rotational values are in degrees (yes) or radians (no).

endheader
time	pelvis_tilt	pelvis_list	pelvis_rotation	pelvis_tx	pelvis_ty	pelvis_tz	hip_flexion_r	hip_adduction_r	hip_rotation_r	knee_angle_r	knee_angle_r_beta	ankle_angle_r	subtalar_angle_r	mtp_angle_r	hip_flexion_l	hip_adduction_l	hip_rotation_l	knee_angle_l	knee_angle_l_beta	ankle_angle_l	subtalar_angle_l	mtp_angle_l	lumbar_extension	lumbar_bending	lumbar_rotation	arm_flex_r	arm_add_r	arm_rot_r	elbow_flex_r	pro_sup_r	arm_flex_l	arm_add_l	arm_rot_l	elbow_flex_l	pro_sup_l
      4.31666670	    -19.29136525	     -0.14200363	      6.92278512	      1.12660016	      0.78886985	     -0.75711220	     56.14559632	    -10.44676885	     -4.36465715	     71.58184799	      1.24933893	     36.80444620	     -2.90354191	     -7.49999987	     57.66674761	    -12.48133816	     -8.04492845	     68.61072776	      1.19748310	     33.88948129	      6.32122791	     -7.49999987	    -17.41173200	     -6.51193191	      9.03308231	     19.33797721	    -15.71727434	     20.69945328	     32.31711181	     68.48665967	     18.82263910	    -11.01626302	     19.74127223	     38.24525742	     69.82629272
      4.33333330	    -17.38125523	      0.60543067	      6.63106095	      1.13144797	      0.81466517	     -0.75092371	     50.66450472	    -10.56305703	     -4.89793266	     66.35722425	      1.15815205	     35.05244448	     -3.02968691	     -7.49999987	     51.74306978	    -11.90130668	     -9.40576417	     63.36247072	      1.10588374	     32.12239585	      7.14000241	     -7.49999987	    -17.29223556	     -6.92802096	      8.99336692	     18.34254705	    -14.90419597	     20.45064022	     29.58922565	     68.09024076	     17.98681953	    -11.40559475	     20.47572642	     35.87459649	     69.04560823
      4.35000000	    -15.77680586	      1.19700730	      6.31743294	      1.13386073	      0.83304353	     -0.75791690	     45.85003214	    -10.71913056	     -5.50470420	     61.43688254	      1.07227588	     32.54488602	     -3.69287251	     -7.49999987	     46.52171356	    -11.16553463	    -10.61704543	     58.37421913	      1.01882232	     30.08746964	      7.41064961	     -7.49999987	    -16.52297527	     -6.94318360	      9.42927244	     16.47802441	    -14.77284077	     20.78273772	     27.35725923	     68.11240764	     16.91014326	    -11.30801657	     21.18563614	     34.53968389	     68.84291939
      4.36666670	    -14.60888563	      1.73186544	      5.96943794	      1.13120008	      0.84911302	     -0.75985756	     42.05274854	    -11.03099314	     -6.24309478	     57.04762591	      0.99566890	     30.10712374	     -3.56736980	     -7.49999987	     42.27474251	    -10.33145682	    -11.64218940	     53.76240681	      0.93833101	     28.53509874	      7.98997191	     -7.49999987	    -15.43419525	     -6.92394405	      9.74711580	     15.14812165	    -14.80261531	     21.40127460	     25.28514543	     68.28639694	     15.74837817	    -11.58868230	     22.21315440	     33.25495822	     68.86365073
      4.38333330	    -13.56790979	      2.08430278	      5.70503304	      1.13597835	      0.87055240	     -0.75529528	     38.16110028	    -11.12665492	     -7.35091733	     52.11654236	      0.90960526	     27.51194823	     -3.42405592	     -7.49999987	     38.09340194	     -9.54505182	    -12.58387708	     48.72662508	      0.85044004	     26.49448236	      8.24168018	     -7.49999987	    -14.38691926	     -6.84689972	      9.84334252	     13.99926668	    -14.56012730	     22.10496395	     23.50338018	     68.53015275	     15.08103643	    -11.95765610	     23.32985911	     32.08395631	     69.06106566
      4.40000000	    -11.77124896	      2.44872710	      5.15886095	      1.14403562	      0.89673281	     -0.75807055	     32.79366392	    -11.07583594	     -8.86131095	     45.97093858	      0.80234424	     24.41115320	     -2.92908244	     -7.49999987	     32.41541102	     -8.46465063	    -13.23666602	     42.31491845	      0.73853465	     23.43023715	      7.77983296	     -7.49999987	    -13.90170318	     -6.68801632	     10.08286108	     12.91927410	    -14.36617379	     23.22285325	     21.67777917	     68.69108260	     14.60435020	    -12.29730695	     24.85883879	     30.54276412	     69.25040039
      4.41666670	    -10.78095182	      2.51919263	      4.84466368	      1.14355437	      0.90662745	     -0.75659210	     29.00947361	    -10.65139573	     -9.93038598	     40.81825514	      0.71241295	     21.63117419	     -2.51918324	     -7.49999987	     28.57339563	     -7.75256354	    -13.71481733	     37.23840572	      0.64993279	     20.93154936	      7.62458873	     -7.49999987	    -12.94910736	     -6.48927068	     10.01886992	     11.43145777	    -14.22052226	     23.45454064	     21.34945099	     68.98602604	     13.48816192	    -12.93478787	     25.69520696	     30.14519805	     69.60995745
      4.43333330	     -9.29618679	      2.44803903	      4.45115607	      1.14818792	      0.92851335	     -0.75120718	     24.26236066	     -9.76131089	    -10.80391679	     34.88772745	      0.60890571	     18.80348095	     -2.19258698	     -7.49999987	     23.92933211	     -7.22617977	    -14.21663185	     31.55166919	      0.55068051	     17.83062790	      7.18215701	     -7.49999987	    -12.48337941	     -6.25779359	      9.92818968	     10.23274421	    -13.73217765	     23.50768127	     20.36885899	     69.47508753	     13.12925932	    -13.19858263	     26.40586942	     29.03854867	     70.25195679
      4.45000000	     -7.93847733	      2.39640125	      3.79609197	      1.15004345	      0.94224822	     -0.75737458	     20.25923636	     -8.93610021	    -11.13232595	     29.80888981	      0.52026327	     15.95957670	     -1.95625438	     -7.49999987	     19.50883594	     -6.53554899	    -14.38718884	     25.94045574	      0.45274636	     15.12511422	      6.50901954	     -7.49999987	    -12.01562672	     -5.99143873	      9.82199062	      8.87661301	    -13.56144114	     23.41619109	     19.93990916	     69.73290249	     12.50758392	    -13.44712841	     27.07603200	     28.50874561	     70.65602618
      4.46666670	     -6.81619367	      2.17386442	      3.44378660	      1.14957677	      0.95108024	     -0.75670816	     16.71280454	     -8.02438292	    -11.25207001	     25.15754283	      0.43908195	     13.54415151	     -1.73790289	     -7.49999987	     15.70920853	     -5.98573403	    -14.11563651	     20.75181564	      0.36218751	     12.82808943	      6.03295802	     -7.49999987	    -11.29010116	     -5.66472508	      9.81640300	      7.68343660	    -13.46368135	     23.22050691	     19.42284532	     70.10794993	     12.06269938	    -13.45247216	     27.65764384	     27.80775158	     71.19950679
      4.48333330	     -5.46234453	      2.01162765	      2.83617733	      1.16134210	      0.95694266	     -0.76169620	     13.11735848	     -7.27652998	    -10.94810775	     21.16020050	      0.36931517	     11.69566189	     -1.77442241	     -7.49999987	     11.42585982	     -5.40018967	    -13.49907476	     15.84345246	      0.27652041	     11.03856784	      5.24731794	     -7.49999987	    -10.37059152	     -5.20333325	     10.39876035	      6.21781877	    -13.56865433	     23.11488575	     19.04688440	     70.58535976	     11.09534664	    -13.16846561	     27.88218341	     27.27903440	     71.69283574
